<?xml version="1.0" standalone="no"?>
<!DOCTYPE svg PUBLIC "-//W3C//DTD SVG 20010904//EN"
 "http://www.w3.org/TR/2001/REC-SVG-20010904/DTD/svg10.dtd">
<svg version="1.0" xmlns="http://www.w3.org/2000/svg"
 width="400.000000pt" height="400.000000pt" viewBox="0 0 400.000000 400.000000"
 preserveAspectRatio="xMidYMid meet">

<g transform="translate(0.000000,400.000000) scale(0.100000,-0.100000)"
fill="#000000" stroke="none">
<path d="M2126 3735 c-9 -26 -7 -32 5 -12 6 10 9 21 6 23 -2 3 -7 -2 -11 -11z"/>
<path d="M1845 3690 c-3 -6 1 -7 9 -4 18 7 21 14 7 14 -6 0 -13 -4 -16 -10z"/>
<path d="M1942 3687 c-11 -12 -29 -76 -19 -67 7 7 37 80 33 80 -2 0 -8 -6 -14
-13z"/>
<path d="M2036 3658 c-18 -18 -36 -44 -39 -58 -5 -22 -5 -23 7 -7 7 9 17 17
22 17 5 0 19 18 32 40 27 48 22 50 -22 8z"/>
<path d="M2085 3649 c-3 -9 0 -44 8 -78 8 -33 11 -61 6 -61 -29 0 -39 15 -40
59 l-1 46 -11 -42 c-8 -35 -14 -43 -33 -43 -12 0 -34 -4 -48 -10 -32 -12 -35
3 -6 27 21 18 27 53 10 53 -5 0 -7 -6 -4 -13 2 -7 -7 -19 -21 -27 -19 -10 -24
-20 -21 -39 2 -14 -1 -31 -6 -38 -5 -7 -5 -14 1 -17 6 -4 8 -13 5 -21 -4 -10
0 -13 15 -10 14 2 21 -1 21 -11 0 -8 8 -14 17 -14 9 0 14 -3 11 -6 -4 -3 1
-13 10 -23 16 -16 18 -16 35 2 9 11 18 16 18 11 1 -5 4 4 8 20 6 28 7 29 23
12 20 -20 38 -13 38 14 0 10 5 22 10 25 6 4 10 12 9 18 -1 7 1 20 6 30 9 22
-6 79 -22 84 -8 3 -11 -7 -7 -34 4 -36 4 -37 -6 -8 -5 17 -7 37 -5 46 3 9 1
27 -4 40 -7 20 -10 21 -16 8z m-65 -139 c0 -5 -5 -10 -11 -10 -5 0 -7 5 -4 10
3 6 8 10 11 10 2 0 4 -4 4 -10z"/>
<path d="M2298 3580 c-4 -14 -8 -34 -8 -45 1 -19 1 -19 11 -2 6 10 9 30 7 45
l-3 27 -7 -25z"/>
<path d="M1753 3481 c-20 -69 -20 -69 -1 -89 15 -15 17 -21 7 -27 -8 -6 -10
-4 -4 5 6 10 3 12 -13 8 -12 -3 -22 -2 -24 3 -2 5 -18 3 -36 -3 -30 -12 -33
-16 -28 -42 3 -16 7 -49 7 -75 2 -43 2 -44 8 -12 l6 34 18 -41 c10 -23 27 -44
37 -47 11 -3 19 -14 18 -23 -4 -57 3 -81 25 -85 12 -2 -1 -5 -30 -6 -41 -1
-52 2 -56 17 -4 16 -5 16 -6 0 -1 -15 -11 -18 -58 -19 -32 0 -94 -10 -138 -22
-68 -19 -80 -25 -77 -42 1 -11 6 -55 12 -99 5 -43 15 -84 21 -92 9 -11 8 -18
-1 -29 -11 -13 -6 -24 30 -67 45 -52 80 -112 80 -135 0 -27 -21 -11 -59 45
-45 66 -76 96 -122 121 -22 11 -43 35 -61 69 -14 28 -35 63 -45 78 l-20 27
-69 -79 c-38 -44 -78 -90 -89 -104 -28 -35 -65 -60 -91 -60 -12 0 -42 11 -65
25 -24 14 -49 25 -55 25 -8 0 -13 -33 -16 -92 -5 -102 -21 -144 -97 -252 -21
-31 -44 -69 -51 -86 -12 -29 -10 -34 26 -86 22 -30 43 -61 48 -68 12 -17 -119
-285 -174 -354 -23 -30 -39 -56 -37 -59 9 -8 119 45 159 77 43 35 62 38 53 10
-4 -12 -8 -35 -10 -53 -2 -18 -18 -66 -35 -107 -53 -126 -89 -240 -121 -386
-71 -326 -81 -375 -105 -523 -32 -198 -120 -585 -148 -652 -5 -11 5 -23 34
-43 24 -16 40 -34 40 -46 0 -20 10 -20 1595 -20 1525 0 1595 1 1595 18 0 31
-75 279 -168 552 -147 436 -225 744 -241 958 -9 128 -7 139 37 153 19 6 49 20
66 29 17 10 60 26 96 35 36 9 74 22 85 28 11 6 43 23 70 37 64 34 99 83 90
125 -4 17 -9 79 -11 139 -4 106 -5 109 -36 140 l-31 31 19 -32 c10 -18 22 -33
26 -33 15 0 9 -91 -7 -106 -12 -12 -13 -20 -4 -36 16 -29 28 -139 15 -131 -5
4 -7 -1 -3 -10 3 -9 1 -19 -5 -23 -7 -4 -8 -3 -4 4 4 7 2 12 -3 12 -6 0 -11
-4 -11 -9 0 -6 -16 -3 -35 5 -53 22 -66 18 -130 -39 l-61 -52 -189 1 c-105 1
-201 4 -215 7 -14 3 -29 6 -34 6 -5 1 -3 8 4 16 6 8 13 26 14 40 3 26 16 48
16 27 0 -15 61 -41 98 -42 15 -1 80 -3 145 -6 112 -5 120 -4 160 19 23 14 50
34 60 45 18 20 18 20 -12 27 -22 5 -31 12 -31 27 0 30 -24 16 -30 -17 -5 -31
-28 -42 -87 -44 -22 -1 -33 -6 -33 -16 0 -10 -10 -15 -29 -15 -22 0 -30 6 -35
24 -3 13 -9 31 -12 40 -5 13 -1 14 25 6 l31 -9 0 44 c0 40 -5 49 -70 116 -38
41 -70 77 -70 80 0 4 17 1 37 -6 26 -9 42 -22 50 -42 14 -36 37 -56 58 -51 13
2 9 12 -19 45 -20 22 -36 50 -36 60 0 10 -5 24 -12 31 -14 14 3 17 18 3 15
-14 62 -22 69 -11 3 5 24 10 45 10 43 0 60 -20 75 -87 8 -38 23 -51 31 -28 7
17 -12 90 -28 112 -6 8 -2 16 12 23 18 9 24 8 38 -7 22 -24 72 -56 78 -50 6 6
-28 77 -36 77 -4 0 -7 8 -7 18 0 20 21 39 58 53 26 10 26 12 32 127 l6 116
-42 36 c-50 43 -102 76 -187 119 -45 22 -88 56 -139 109 -55 58 -63 64 -31 25
48 -60 45 -66 -11 -22 -49 39 -98 109 -103 147 -5 43 -16 59 -28 38 -5 -9 -13
-14 -18 -11 -5 3 -20 -1 -32 -9 -27 -17 -63 -15 -86 5 -9 8 -27 19 -39 24 -36
17 -103 106 -104 140 0 16 -3 24 -6 18 -2 -7 -15 -13 -28 -13 -15 0 -26 -7
-30 -20 -4 -11 -11 -18 -16 -15 -5 4 -9 1 -9 -4 0 -6 5 -11 11 -11 5 0 7 -5 4
-10 -8 -13 -41 22 -50 51 -7 20 -25 26 -25 9 0 -17 -18 -11 -23 8 -3 10 -5 6
-6 -10 -2 -47 -50 -34 -65 17 -3 11 -3 -4 0 -32 5 -60 -2 -65 -43 -27 -15 14
-38 30 -51 35 -13 5 -21 13 -18 18 4 5 2 11 -3 13 -4 1 -12 13 -15 26 -6 16
-3 22 8 22 9 0 16 5 16 11 0 6 -6 7 -12 2 -7 -4 -5 5 5 21 14 20 17 38 13 68
-3 23 -9 44 -12 47 -4 3 -5 -4 -2 -16 4 -15 2 -20 -8 -16 -8 3 -13 17 -12 32
4 55 -2 111 -12 111 -5 0 -10 -15 -11 -32 0 -18 -3 -27 -6 -20 -4 10 -8 10
-19 1 -8 -6 -27 -9 -43 -6 -21 4 -34 1 -46 -13 -15 -17 -16 -20 -3 -20 9 0 16
-6 15 -12 -1 -33 4 -49 13 -43 6 3 10 -2 10 -12 0 -11 5 -24 12 -31 9 -9 8
-12 -4 -12 -9 0 -29 -5 -44 -10 -21 -8 -24 -14 -16 -22 7 -7 12 -27 12 -46 0
-27 -3 -33 -16 -28 -23 9 -64 -4 -64 -20 0 -9 8 -12 28 -8 15 3 41 0 57 -6 28
-11 28 -13 10 -20 -14 -6 -15 -9 -4 -9 15 -1 39 17 39 30 0 4 -7 15 -16 23
-14 15 -14 18 5 42 12 15 21 33 21 40 0 7 6 16 13 20 6 4 9 4 5 -1 -4 -4 0
-14 10 -21 14 -11 15 -16 5 -33 -7 -12 -13 -28 -13 -36 0 -8 -6 -15 -12 -15
-10 0 -10 -2 0 -8 9 -6 8 -13 -6 -28 -10 -11 -16 -26 -14 -33 3 -9 0 -11 -8
-6 -8 5 -11 3 -8 -6 7 -18 -20 -71 -32 -64 -6 3 -7 -1 -4 -9 5 -13 -1 -16 -29
-16 -43 0 -69 9 -61 21 3 5 -1 6 -9 3 -8 -3 -32 4 -53 15 -21 12 -46 21 -55
21 -9 0 -22 7 -30 16 -11 13 -9 14 14 9 25 -7 26 -6 15 23 -7 17 -15 29 -18
27 -4 -3 -13 7 -20 20 -7 14 -18 25 -23 25 -14 0 2 -53 20 -67 9 -7 13 -13 8
-13 -5 0 -19 10 -32 22 l-23 21 -1 -34 c-2 -43 -3 -48 -17 -82 -7 -16 -12 -66
-12 -112 0 -79 1 -84 27 -103 16 -11 25 -23 21 -27 -12 -12 -49 20 -86 74 -46
66 -50 126 -11 167 22 24 23 26 7 38 -20 15 -25 31 -6 20 7 -5 8 -3 3 6 -6 10
-11 10 -20 -3 -16 -22 -28 -22 -17 1 5 9 7 24 5 32 -4 12 -3 12 5 2 5 -8 12
-13 16 -12 14 2 34 -16 39 -35 6 -26 8 3 10 177 2 109 -1 138 -11 138 -10 0
-7 10 8 35 12 19 19 35 17 35 -3 0 -24 -11 -48 -25 -52 -29 -59 -23 -59 53 0
28 -4 52 -8 52 -5 0 -18 -31 -29 -69z m597 -267 c0 -14 -5 -34 -10 -44 -8 -15
-6 -24 10 -40 15 -15 19 -28 14 -43 -10 -34 -31 -72 -46 -84 -15 -12 -88 -27
-88 -17 0 13 34 80 50 99 10 11 23 45 30 75 16 75 18 80 30 80 5 0 10 -12 10
-26z m97 -116 c13 -12 23 -27 23 -33 0 -7 14 -16 32 -21 38 -11 58 -56 39 -87
-17 -27 -7 -32 38 -19 52 16 118 15 177 -3 27 -8 58 -15 69 -15 24 0 78 -86
95 -151 12 -45 4 -128 -14 -135 -6 -2 -24 0 -41 5 -26 7 -30 12 -27 40 3 43
-21 51 -53 16 -34 -35 -52 -28 -69 27 -3 9 -16 24 -30 33 -20 14 -28 14 -45 3
-12 -7 -21 -16 -21 -21 0 -4 4 -6 8 -3 5 3 6 -9 4 -25 -8 -56 -51 -47 -52 10
0 29 -26 61 -49 61 -22 -1 -53 -26 -50 -42 4 -30 -1 -42 -12 -31 -6 6 -18 9
-26 6 -22 -9 -33 15 -33 72 0 49 14 149 25 186 5 16 1 19 -24 19 l-31 0 0 65
c0 60 2 65 22 65 12 0 32 -10 45 -22z m-321 -148 c58 -4 110 -12 116 -18 6 -6
0 -28 -17 -62 -14 -29 -24 -58 -21 -66 3 -7 1 -16 -3 -19 -5 -2 -12 -21 -15
-40 -7 -37 -31 -48 -33 -16 -1 14 3 18 13 14 11 -4 14 6 12 53 l-1 59 -7 -45
c-4 -25 -8 -39 -8 -32 -3 20 -22 14 -22 -8 0 -18 -2 -19 -20 -8 -11 7 -20 18
-20 25 0 7 -6 13 -14 13 -14 0 -26 42 -26 91 0 25 4 29 28 30 24 0 25 1 7 9
-36 16 -42 11 -49 -40 -4 -29 -11 -48 -16 -45 -6 4 -10 13 -10 21 0 16 -12 18
-26 4 -6 -6 -11 0 -12 20 -1 17 2 30 8 30 5 0 10 7 10 15 0 8 -4 15 -10 15 -5
0 -10 5 -10 11 0 6 8 8 20 4 10 -3 67 -10 126 -15z m280 -38 c-11 -10 -15 4
-8 28 l7 25 3 -23 c2 -13 1 -26 -2 -30z m-386 -109 c0 -14 -2 -15 -9 -5 -7 11
-9 11 -14 -2 -4 -10 -13 -13 -23 -9 -16 6 -15 8 3 22 11 9 17 23 15 31 -4 11
-1 11 11 -2 10 -9 17 -25 17 -35z m60 -63 c13 -9 13 -10 0 -10 -8 0 -22 5 -30
10 -13 9 -13 10 0 10 8 0 22 -5 30 -10z m-505 -61 c79 -54 107 -81 59 -56 -16
8 -44 18 -61 22 -29 6 -50 26 -77 73 -12 20 0 14 79 -39z m1734 0 c60 -48 81
-79 54 -79 -17 0 -123 97 -123 112 0 16 19 7 69 -33z m-2212 -59 c4 -4 51 -27
103 -51 113 -52 309 -159 294 -159 -6 0 -47 19 -91 43 -106 57 -175 85 -280
111 l-88 22 -3 44 c-3 33 1 47 14 57 16 11 19 9 30 -23 7 -20 16 -40 21 -44z
m2257 65 c11 -8 21 -22 22 -31 2 -12 -6 -8 -27 12 -16 15 -29 29 -29 31 0 7
16 1 34 -12z m-1348 -22 c15 -15 44 -73 44 -88 0 -9 -41 15 -82 47 -21 16 -38
34 -38 40 0 6 6 6 15 -2 12 -10 15 -10 15 4 0 21 24 21 46 -1z m134 -9 c20 -4
22 -3 10 5 -12 9 -9 10 15 8 36 -4 55 -14 55 -29 0 -6 -7 -5 -17 3 -16 13 -17
12 -4 -4 13 -16 15 -16 32 -1 18 16 19 16 19 -6 0 -18 3 -20 13 -11 8 6 17 8
21 4 4 -4 4 1 0 11 -5 13 -4 17 3 13 6 -4 13 -4 16 0 2 5 2 2 0 -5 -1 -8 -3
-20 -3 -28 0 -9 -4 -12 -10 -9 -5 3 -10 1 -10 -4 0 -6 7 -11 15 -11 8 0 15 5
15 11 0 5 5 7 10 4 7 -4 8 -11 1 -18 -6 -8 -4 -16 4 -24 16 -15 26 -6 18 15
-4 10 -2 13 5 8 6 -3 10 -15 9 -25 0 -10 5 -36 12 -58 12 -35 11 -44 -9 -86
-12 -26 -29 -47 -37 -47 -8 0 -11 5 -7 13 6 10 4 10 -7 0 -23 -23 -74 -14
-142 23 -70 39 -65 32 -82 142 -4 23 -11 40 -16 37 -4 -3 -11 7 -15 22 -3 15
-7 33 -9 40 -7 23 23 25 95 7z m1277 -36 c-3 -8 -6 -5 -6 6 -1 11 2 17 5 13 3
-3 4 -12 1 -19z m30 7 c0 -8 -4 -15 -9 -15 -4 0 -8 7 -8 15 0 8 4 15 8 15 5 0
9 -7 9 -15z m56 -42 c-7 -2 -21 -2 -30 0 -10 3 -4 5 12 5 17 0 24 -2 18 -5z
m-644 -13 c17 -8 17 -12 2 -59 -14 -45 -19 -51 -43 -51 -34 0 -35 14 -7 75 23
49 23 49 48 35z m-698 -180 c23 -10 23 -10 2 -6 -13 2 -23 0 -23 -5 0 -21 -28
-7 -32 16 -6 31 3 41 18 21 6 -9 22 -20 35 -26z m736 18 c-3 -8 -6 -5 -6 6 -1
11 2 17 5 13 3 -3 4 -12 1 -19z m-492 -8 c3 -5 1 -10 -4 -10 -6 0 -11 5 -11
10 0 6 2 10 4 10 3 0 8 -4 11 -10z m-515 -10 c0 -5 -9 -10 -21 -10 -11 0 -17
5 -14 10 3 6 13 10 21 10 8 0 14 -4 14 -10z m481 -23 c-16 -16 -26 0 -10 19 9
11 15 12 17 4 2 -6 -1 -17 -7 -23z m561 18 c0 -5 -5 -11 -11 -13 -6 -2 -11 4
-11 13 0 9 5 15 11 13 6 -2 11 -8 11 -13z m-325 -17 c-3 -8 -6 -5 -6 6 -1 11
2 17 5 13 3 -3 4 -12 1 -19z m-869 -34 c29 -8 28 -20 -3 -28 -22 -6 -85 16
-85 29 0 7 61 6 88 -1z m418 -71 c-10 -10 -19 5 -10 18 6 11 8 11 12 0 2 -7 1
-15 -2 -18z m-671 -23 c26 -42 32 -79 15 -96 -12 -12 162 -52 261 -61 55 -5
57 -7 62 -37 3 -17 23 -82 45 -143 21 -62 36 -111 33 -109 -3 2 -5 -28 -4 -67
2 -94 -12 -141 -39 -134 -17 5 -19 2 -13 -20 4 -17 1 -29 -7 -34 -16 -10 9
-58 60 -114 18 -20 9 -22 -113 -28 -62 -3 -130 1 -180 9 -139 25 -199 35 -221
40 -22 4 -35 44 -148 459 -13 50 -36 130 -50 180 -36 125 -36 128 15 120 23
-4 87 -20 143 -36 126 -36 127 -36 116 -1 -14 44 -20 112 -10 112 5 0 21 -18
35 -40z m1569 16 c28 -12 33 -18 29 -40 -3 -14 -11 -31 -19 -37 -8 -6 -14 -16
-14 -21 0 -5 -13 -37 -29 -71 -16 -34 -31 -70 -35 -79 -3 -10 -12 -18 -19 -18
-17 0 -18 30 -3 49 9 12 8 13 -4 6 -13 -7 -13 -6 -2 7 8 10 11 31 7 57 -3 28
1 54 14 83 11 24 22 51 25 61 6 21 8 21 50 3z m-819 -2 c12 -5 14 -9 4 -14
-14 -9 -39 -2 -39 11 0 11 12 11 35 3z m58 -11 c-7 -2 -19 -2 -25 0 -7 3 -2 5
12 5 14 0 19 -2 13 -5z m-1309 -95 c-4 -40 -7 -86 -7 -101 0 -21 -15 -44 -52
-83 -28 -30 -56 -54 -63 -54 -7 0 -11 3 -9 8 2 4 19 52 37 107 44 138 70 195
87 195 12 0 13 -13 7 -72z m122 44 c15 -9 54 -99 54 -123 0 -25 -12 -24 -60 4
-38 21 -41 21 -70 5 -16 -9 -30 -15 -30 -12 0 20 76 134 89 134 3 0 11 -4 17
-8z m1431 -8 c-3 -3 -12 -4 -19 -1 -8 3 -5 6 6 6 11 1 17 -2 13 -5z m376 -55
c-8 -16 -17 -28 -20 -25 -6 5 23 56 31 56 3 0 -2 -14 -11 -31z m-480 4 c3 -10
17 -48 31 -85 14 -38 21 -68 16 -68 -4 0 -18 29 -30 65 -12 36 -26 67 -31 70
-12 8 -12 35 0 35 5 0 11 -8 14 -17z m628 -70 c13 -16 12 -17 -3 -4 -17 13
-22 21 -14 21 2 0 10 -8 17 -17z m59 -28 c0 -8 -4 -15 -10 -15 -5 0 -10 7 -10
15 0 8 5 15 10 15 6 0 10 -7 10 -15z m69 -26 c38 -23 34 -39 -5 -19 -21 12
-27 12 -33 1 -7 -11 -9 -11 -13 0 -6 16 1 39 11 39 3 0 21 -9 40 -21z m-760
-26 c10 -19 9 -23 -4 -23 -10 0 -15 9 -15 27 0 29 2 29 19 -4z m611 -13 c0
-23 -4 -28 -25 -26 -29 1 -32 21 -9 47 21 24 34 16 34 -21z m60 9 c30 -33 30
-59 1 -59 -19 0 -41 38 -41 70 0 27 6 25 40 -11z m77 -235 c30 -9 68 -14 84
-12 36 6 37 -3 2 -24 -45 -26 -125 -11 -181 32 l-25 20 33 0 c17 0 57 -7 87
-16z m-2060 -326 c-3 -8 -6 -5 -6 6 -1 11 2 17 5 13 3 -3 4 -12 1 -19z m-7
-38 c9 -6 38 -168 43 -238 4 -49 3 -53 -15 -49 -13 4 -22 -1 -28 -16 -6 -16
-9 -18 -9 -5 -1 9 -4 23 -7 32 -4 12 0 16 16 16 17 0 20 4 14 18 -4 9 -13 49
-19 87 -15 82 -24 115 -35 115 -4 0 -3 18 3 41 9 36 11 39 20 23 6 -11 13 -21
17 -24z m112 -67 c-2 -7 -9 -13 -14 -13 -6 0 -7 7 -4 16 3 9 6 25 7 37 1 20 2
20 8 -3 4 -14 6 -31 3 -37z m223 -21 c-8 -26 -15 -48 -15 -49 0 -2 -4 -3 -10
-3 -16 0 -12 58 6 85 25 38 35 20 19 -33z m-285 -222 c0 -5 -5 -10 -11 -10 -5
0 -7 5 -4 10 3 6 8 10 11 10 2 0 4 -4 4 -10z m621 -11 c77 -28 82 -49 21 -94
-26 -18 -55 -41 -64 -49 -10 -9 -22 -16 -28 -16 -15 0 -24 69 -12 95 9 19 7
26 -9 41 -18 16 -18 18 -1 30 23 18 26 17 93 -7z m-618 -38 c-2 -13 1 -20 7
-16 6 3 10 -3 10 -14 0 -11 -4 -23 -10 -26 -6 -4 -7 1 -3 11 4 12 3 15 -6 10
-8 -5 -14 -1 -18 13 -5 21 -23 30 -23 11 0 -5 -7 -10 -15 -10 -8 0 -15 9 -15
19 0 14 8 21 28 24 40 6 47 2 45 -22z m-20 -55 c3 -8 -1 -17 -9 -20 -23 -9
-24 -8 -24 14 0 23 25 27 33 6z m37 -26 c0 -5 -4 -10 -10 -10 -5 0 -10 5 -10
10 0 6 5 10 10 10 6 0 10 -4 10 -10z m-40 -29 c0 -5 -7 -11 -15 -15 -9 -3 -15
0 -15 9 0 8 7 15 15 15 8 0 15 -4 15 -9z m66 -46 c14 -22 14 -26 -2 -55 -25
-41 -34 -38 -34 10 0 42 -7 49 -28 28 -10 -10 -15 -10 -22 2 -17 26 -11 30 31
25 25 -3 38 -1 34 5 -14 22 6 8 21 -15z m484 -70 c-7 -31 -17 -58 -22 -61 -10
-7 -10 -2 3 54 15 67 19 76 26 68 3 -3 0 -31 -7 -61z m-540 -5 c-19 -12 -35 3
-26 26 6 17 8 17 24 0 15 -15 15 -18 2 -26z m-142 -177 c-18 -12 -32 -23 -33
-23 0 0 -2 11 -3 25 -2 22 2 24 33 23 l35 -1 -32 -24z m-61 -25 c-3 -7 -5 -2
-5 12 0 14 2 19 5 13 2 -7 2 -19 0 -25z"/>
<path d="M2148 2923 c12 -2 30 -2 40 0 9 3 -1 5 -23 4 -22 0 -30 -2 -17 -4z"/>
<path d="M2121 2864 c0 -11 3 -14 6 -6 3 7 2 16 -1 19 -3 4 -6 -2 -5 -13z"/>
<path d="M3040 2240 c0 -5 5 -10 11 -10 5 0 7 5 4 10 -3 6 -8 10 -11 10 -2 0
-4 -4 -4 -10z"/>
<path d="M1086 1355 c4 -8 8 -15 10 -15 2 0 4 7 4 15 0 8 -4 15 -10 15 -5 0
-7 -7 -4 -15z"/>
<path d="M1821 3479 c-13 -17 -20 -33 -18 -36 7 -6 77 49 77 61 0 5 -10 1 -22
-10 -19 -17 -21 -17 -15 -1 9 24 4 21 -22 -14z"/>
<path d="M2213 3478 c-6 -7 -13 -22 -16 -33 -6 -17 -4 -17 13 4 11 13 20 27
20 32 0 12 -6 11 -17 -3z"/>
<path d="M1555 3419 c-16 -35 -34 -67 -39 -70 -5 -4 -5 -12 -1 -19 5 -9 4 -11
-3 -6 -8 5 -12 -1 -12 -14 0 -35 24 -17 32 23 4 20 19 55 34 76 14 22 24 47
22 57 -2 10 -15 -9 -33 -47z"/>
<path d="M2167 3452 c-21 -23 -22 -39 -2 -39 8 0 12 4 9 8 -3 5 0 18 6 29 13
25 8 26 -13 2z"/>
<path d="M1605 3447 c-21 -23 -25 -35 -19 -51 5 -13 8 -13 24 2 21 20 30 53
15 58 -5 2 -15 -2 -20 -9z m5 -31 c0 -3 -4 -8 -10 -11 -5 -3 -10 -1 -10 4 0 6
5 11 10 11 6 0 10 -2 10 -4z"/>
<path d="M2115 3300 c3 -5 8 -10 11 -10 2 0 4 5 4 10 0 6 -5 10 -11 10 -5 0
-7 -4 -4 -10z"/>
<path d="M3456 3301 c-4 -6 4 -25 18 -42 14 -17 26 -34 26 -38 0 -12 40 -51
52 -51 7 0 7 4 -1 14 -9 11 -8 15 5 20 9 3 20 4 25 0 13 -8 11 -34 -3 -34 -7
0 -2 -6 12 -13 35 -18 70 -74 70 -113 0 -19 5 -34 10 -34 12 0 6 76 -11 147
-14 59 -51 116 -86 132 -39 18 -109 25 -117 12z"/>
<path d="M1567 3274 c-3 -5 5 -26 18 -47 20 -34 23 -36 23 -14 0 27 -32 75
-41 61z"/>
<path d="M2283 3233 c-18 -38 -16 -54 2 -19 9 16 14 33 13 37 -2 5 -9 -4 -15
-18z"/>
<path d="M1924 3235 c-3 -8 -4 -20 -1 -27 4 -8 6 -6 6 5 1 9 6 17 11 17 6 0
10 5 10 10 0 15 -20 12 -26 -5z"/>
<path d="M2615 3210 c3 -5 8 -10 11 -10 2 0 4 5 4 10 0 6 -5 10 -11 10 -5 0
-7 -4 -4 -10z"/>
<path d="M1991 3195 c-1 -17 -3 -17 -11 -5 -8 13 -10 13 -10 -2 0 -9 5 -20 10
-23 12 -7 24 19 17 37 -3 7 -6 4 -6 -7z"/>
<path d="M2830 3167 c0 -3 19 -20 43 -38 23 -19 36 -26 28 -16 -16 20 -71 61
-71 54z"/>
<path d="M1677 3139 c4 -13 8 -18 11 -10 2 7 -1 18 -6 23 -8 8 -9 4 -5 -13z"/>
<path d="M2946 3065 c10 -8 26 -14 34 -14 11 0 10 3 -4 14 -11 8 -27 15 -35
15 -11 0 -10 -4 5 -15z"/>
<path d="M803 2933 c-22 -15 -34 -41 -12 -28 6 4 5 -2 -2 -14 -12 -17 -10 -23
11 -46 13 -14 27 -25 31 -25 15 0 18 36 6 81 -12 45 -13 46 -34 32z"/>
<path d="M270 2758 c0 -12 43 -37 69 -40 44 -5 31 17 -19 33 -28 8 -50 12 -50
7z"/>
<path d="M509 2197 c-34 -31 -68 -40 -86 -22 -16 17 -43 9 -43 -12 0 -45 87
-103 155 -103 39 0 40 2 23 33 -6 12 -14 46 -17 75 l-6 54 -26 -25z"/>
</g>
</svg>
